<svg width="122" height="98" viewBox="0 0 122 98" fill="none" xmlns="http://www.w3.org/2000/svg">
<path d="M7.03875 97.3242C7.44493 97.6984 8.07756 97.6725 8.45178 97.2663L14.55 90.6472C14.9242 90.2411 14.8983 89.6084 14.4921 89.2342C14.0859 88.86 13.4533 88.8859 13.0791 89.2921L7.65846 95.1757L1.77486 89.7551C1.36868 89.3808 0.736046 89.4067 0.36183 89.8129C-0.0123867 90.2191 0.0135231 90.8517 0.419701 91.226L7.03875 97.3242ZM8.71549 96.5478C6.69453 47.2025 57.1341 4.65475 121.975 1.99917L121.893 0.000843834C56.4667 2.68041 4.63237 45.7257 6.71717 96.6296L8.71549 96.5478Z" fill="#FF4546"/>
</svg>
