<svg width="150" height="44" viewBox="0 0 150 44" fill="none" xmlns="http://www.w3.org/2000/svg">
<path d="M-0.000112695 23.2298C-0.000113791 23.7821 0.447601 24.2299 0.999887 24.2298L9.99989 24.2298C10.5522 24.2298 10.9999 23.7821 10.9999 23.2298C10.9999 22.6776 10.5522 22.2298 9.99989 22.2298L1.99989 22.2298L1.99989 14.2298C1.99989 13.6776 1.55217 13.2298 0.999888 13.2298C0.447602 13.2298 -0.000112232 13.6776 -0.000113243 14.2298L-0.000112695 23.2298ZM1.70699 23.937C36.6286 -10.9847 102.097 -2.71835 147.985 43.1694L149.399 41.7552C103.097 -4.54694 36.3175 -13.502 0.292781 22.5227L1.70699 23.937Z" fill="#FF4546"/>
</svg>
