<svg width="178" height="51" viewBox="0 0 178 51" fill="none" xmlns="http://www.w3.org/2000/svg">
<path d="M0 22.1703V21.05C0.332715 20.8534 0.704573 20.6863 1.11557 20.5488C1.52657 20.3915 1.95715 20.2736 2.40729 20.195V3.50833C1.95715 3.41006 1.51679 3.29213 1.08622 3.15455C0.675216 2.99731 0.313143 2.83025 0 2.65336V1.53305H3.40543C3.73815 1.53305 4.14915 1.52322 4.63844 1.50357C5.12772 1.48391 5.63658 1.46426 6.16501 1.44461C6.69344 1.4053 7.2023 1.37581 7.69159 1.35616C8.20044 1.31685 8.63102 1.2972 8.9833 1.2972C10.686 1.2972 12.2028 1.52322 13.5337 1.97528C14.8841 2.42733 16.0192 3.08575 16.9391 3.95055C17.8785 4.81535 18.5929 5.88652 19.0822 7.16406C19.591 8.4416 19.8455 9.91569 19.8455 11.5863C19.8455 13.2176 19.6106 14.7016 19.1409 16.0381C18.6712 17.3746 17.9666 18.5145 17.0272 19.4579C16.0877 20.4014 14.8939 21.1384 13.4456 21.6691C12.0169 22.1801 10.3337 22.4356 8.39616 22.4356C8.14173 22.4356 7.79923 22.4159 7.36866 22.3766C6.93808 22.357 6.47816 22.3275 5.98887 22.2882C5.49958 22.2685 5.01029 22.2391 4.52101 22.1997C4.03172 22.1801 3.60115 22.1703 3.22929 22.1703H0ZM8.60166 3.21351C8.24937 3.21351 7.89709 3.22334 7.5448 3.24299C7.19251 3.26265 6.88916 3.29213 6.63473 3.33144V20.4014C6.71301 20.421 6.85001 20.4407 7.04573 20.4603C7.24144 20.4603 7.43716 20.4701 7.63287 20.4898C7.84816 20.4898 8.05366 20.4996 8.24937 20.5193C8.44509 20.5193 8.59187 20.5193 8.68973 20.5193C9.82488 20.5193 10.7839 20.2834 11.5667 19.8117C12.3692 19.34 13.0248 18.7012 13.5337 17.8954C14.0425 17.0896 14.4144 16.1462 14.6492 15.0652C14.8841 13.9842 15.0015 12.8344 15.0015 11.6158C15.0015 10.5348 14.8743 9.49312 14.6199 8.49074C14.385 7.48836 14.0132 6.59408 13.5043 5.8079C12.9955 5.02172 12.33 4.39278 11.508 3.92107C10.7056 3.44936 9.7368 3.21351 8.60166 3.21351Z" fill="white"/>
<path d="M30.042 22.1703H21.9395V21.0205C22.233 20.8632 22.5364 20.7355 22.8495 20.6372C23.1627 20.5193 23.5052 20.4112 23.877 20.3129V9.5226L21.9395 9.28675V8.13696C22.233 8.01903 22.5951 7.90111 23.0257 7.78318C23.4758 7.66525 23.9455 7.56698 24.4348 7.48836C24.9241 7.39009 25.4036 7.31147 25.8733 7.25251C26.343 7.17389 26.754 7.11493 27.1063 7.07562H28.1045V20.3129C28.4959 20.4112 28.8482 20.5193 29.1613 20.6372C29.4745 20.7355 29.768 20.8632 30.042 21.0205V22.1703ZM23.378 2.59439C23.378 1.90649 23.6128 1.36599 24.0825 0.972897C24.5522 0.579808 25.159 0.383263 25.9027 0.383263C26.6464 0.383263 27.2531 0.579808 27.7228 0.972897C28.1925 1.36599 28.4274 1.90649 28.4274 2.59439C28.4274 3.26265 28.1925 3.79332 27.7228 4.18641C27.2531 4.5795 26.6464 4.77604 25.9027 4.77604C25.159 4.77604 24.5522 4.5795 24.0825 4.18641C23.6128 3.79332 23.378 3.26265 23.378 2.59439Z" fill="white"/>
<path d="M45.0445 19.6938C44.8879 20.0279 44.6335 20.3719 44.2812 20.7257C43.9485 21.0598 43.5277 21.3644 43.0188 21.6396C42.5295 21.8951 41.9522 22.1015 41.2868 22.2587C40.6409 22.4356 39.9363 22.524 39.173 22.524C37.9596 22.524 36.8832 22.3472 35.9438 21.9934C35.0043 21.6199 34.2215 21.0991 33.5952 20.4308C32.9689 19.7429 32.4894 18.9273 32.1567 17.9839C31.8435 17.0404 31.687 15.9791 31.687 14.7998C31.687 12.2841 32.3426 10.3677 33.6539 9.05089C34.9652 7.73404 36.7853 7.07562 39.1143 7.07562C40.1125 7.07562 41.0421 7.2132 41.9033 7.48836C42.784 7.76352 43.5081 8.21558 44.0757 8.84452C44.6628 9.47346 45.0641 10.299 45.2793 11.321C45.5142 12.343 45.5044 13.5911 45.25 15.0652H36.2373C36.2569 16.6179 36.6483 17.8561 37.4116 18.7799C38.1945 19.7036 39.3394 20.1655 40.8464 20.1655C41.4923 20.1655 42.1577 20.0672 42.8427 19.8707C43.5473 19.6741 44.0953 19.4186 44.4867 19.1042L45.0445 19.6938ZM38.9969 8.75608C38.6055 8.75608 38.2532 8.82487 37.94 8.96245C37.6465 9.10003 37.3823 9.35554 37.1474 9.72897C36.9321 10.0828 36.756 10.5741 36.619 11.2031C36.482 11.8124 36.3841 12.5887 36.3254 13.5321H41.0519C41.1889 11.9991 41.1008 10.8198 40.7877 9.99431C40.4745 9.16882 39.8776 8.75608 38.9969 8.75608Z" fill="white"/>
<path d="M54.9998 18.9568C54.9998 18.4457 54.8139 18.0035 54.442 17.6301C54.0897 17.2566 53.6396 16.9127 53.0916 16.5982C52.5631 16.2837 51.976 15.9693 51.3301 15.6548C50.7038 15.3403 50.1167 14.9767 49.5687 14.564C49.0403 14.1316 48.5901 13.6304 48.2183 13.0604C47.866 12.4904 47.6898 11.7927 47.6898 10.9672C47.6898 10.3776 47.8268 9.8469 48.1008 9.37519C48.3748 8.88383 48.7467 8.47109 49.2164 8.13696C49.6861 7.80283 50.2439 7.54732 50.8898 7.37043C51.5552 7.17389 52.2696 7.07562 53.0329 7.07562C54.0897 7.07562 55.0683 7.16406 55.9686 7.34095C56.8884 7.49819 57.6909 7.72422 58.3759 8.01903C58.2976 8.64798 58.141 9.32606 57.9061 10.0533C57.6713 10.7608 57.4462 11.4094 57.2309 11.9991H56.2328L54.9998 8.99193C54.7649 8.89366 54.5203 8.83469 54.2659 8.81504C54.0114 8.77573 53.7276 8.75608 53.4145 8.75608C52.8274 8.75608 52.3772 8.93297 52.0641 9.28675C51.7705 9.62087 51.6237 10.0041 51.6237 10.4365C51.6237 10.9279 51.7999 11.3603 52.1521 11.7337C52.524 12.0875 52.9741 12.4216 53.5026 12.7361C54.0506 13.0506 54.6377 13.3651 55.264 13.6795C55.9099 13.994 56.497 14.3576 57.0254 14.7704C57.5734 15.1634 58.0236 15.6351 58.3759 16.1855C58.7477 16.7358 58.9337 17.3942 58.9337 18.1607C58.9337 19.5169 58.3856 20.5881 57.2896 21.3743C56.1936 22.1408 54.7258 22.524 52.8861 22.524C51.9466 22.524 50.9778 22.4258 49.9797 22.2292C48.9816 22.0327 48.1204 21.7575 47.3963 21.4037C47.4354 20.6962 47.6018 19.9788 47.8953 19.2516C48.1889 18.5244 48.5021 17.8758 48.8348 17.3058H49.8329L51.2714 20.5193C51.4867 20.6765 51.7216 20.7748 51.976 20.8141C52.25 20.8338 52.5044 20.8436 52.7393 20.8436C53.3069 20.8436 53.8255 20.6765 54.2952 20.3424C54.7649 20.0083 54.9998 19.5464 54.9998 18.9568Z" fill="white"/>
<path d="M60.0536 8.13696C60.7973 7.66525 61.5802 7.33113 62.4022 7.13458V4.74656C62.5587 4.62863 62.9404 4.46157 63.5471 4.24537C64.1734 4.00952 64.8682 3.8228 65.6314 3.68522H66.6296V7.4294H70.5047V9.28675H66.6296V16.9225C66.6296 18.1411 66.7764 18.9862 67.07 19.4579C67.3831 19.9297 67.892 20.1655 68.5965 20.1655C68.9488 20.1655 69.3402 20.1459 69.7708 20.1065C70.221 20.0476 70.632 19.9493 71.0038 19.8117L71.2093 20.7846C71.0332 20.9615 70.769 21.1482 70.4167 21.3448C70.084 21.5413 69.6925 21.728 69.2424 21.9049C68.8118 22.0818 68.3323 22.2292 67.8039 22.3472C67.295 22.4651 66.7568 22.524 66.1892 22.524C64.9171 22.524 63.9679 22.1899 63.3416 21.5217C62.7153 20.8534 62.4022 19.7724 62.4022 18.2787V9.28675H60.0536V8.13696Z" fill="white"/>
<path d="M85.812 19.6938C85.6554 20.0279 85.401 20.3719 85.0487 20.7257C84.716 21.0598 84.2952 21.3644 83.7864 21.6396C83.2971 21.8951 82.7197 22.1015 82.0543 22.2587C81.4084 22.4356 80.7038 22.524 79.9406 22.524C78.7271 22.524 77.6507 22.3472 76.7113 21.9934C75.7718 21.6199 74.989 21.0991 74.3627 20.4308C73.7364 19.7429 73.2569 18.9273 72.9242 17.9839C72.6111 17.0404 72.4545 15.9791 72.4545 14.7998C72.4545 12.2841 73.1101 10.3677 74.4214 9.05089C75.7327 7.73404 77.5528 7.07562 79.8819 7.07562C80.88 7.07562 81.8096 7.2132 82.6708 7.48836C83.5515 7.76352 84.2756 8.21558 84.8432 8.84452C85.4304 9.47346 85.8316 10.299 86.0469 11.321C86.2817 12.343 86.2719 13.5911 86.0175 15.0652H77.0048C77.0244 16.6179 77.4158 17.8561 78.1791 18.7799C78.962 19.7036 80.1069 20.1655 81.6139 20.1655C82.2598 20.1655 82.9252 20.0672 83.6102 19.8707C84.3148 19.6741 84.8628 19.4186 85.2542 19.1042L85.812 19.6938ZM79.7644 8.75608C79.373 8.75608 79.0207 8.82487 78.7076 8.96245C78.414 9.10003 78.1498 9.35554 77.9149 9.72897C77.6996 10.0828 77.5235 10.5741 77.3865 11.2031C77.2495 11.8124 77.1516 12.5887 77.0929 13.5321H81.8194C81.9564 11.9991 81.8683 10.8198 81.5552 9.99431C81.2421 9.16882 80.6451 8.75608 79.7644 8.75608Z" fill="white"/>
<path d="M96.3251 22.1703H88.2225V21.0205C88.8684 20.706 89.5142 20.4702 90.1601 20.3129V2.44698L87.9289 2.21113V1.06134C88.1834 0.943415 88.5356 0.825488 88.9858 0.707561C89.4359 0.589635 89.9154 0.491362 90.4243 0.412744C90.9527 0.314472 91.4714 0.235854 91.9802 0.17689C92.5087 0.0982718 92.9784 0.0393085 93.3894 0H94.3875V20.3129C95.0334 20.4702 95.6792 20.706 96.3251 21.0205V22.1703Z" fill="white"/>
<path d="M114.498 22.1703H107.159V21.0205C107.355 20.9026 107.57 20.7846 107.805 20.6667C108.059 20.5291 108.333 20.4112 108.627 20.3129V14.4461C108.627 13.5419 108.597 12.7754 108.539 12.1465C108.499 11.5175 108.402 11.0065 108.245 10.6134C108.088 10.2007 107.873 9.90586 107.599 9.72897C107.325 9.53243 106.973 9.43416 106.542 9.43416C105.916 9.43416 105.368 9.67984 104.898 10.1712C104.448 10.6429 104.115 11.2719 103.9 12.058V20.3129C104.429 20.4702 104.918 20.706 105.368 21.0205V22.1703H97.7351V21.0205C98.0091 20.8829 98.3125 20.7551 98.6452 20.6372C98.9779 20.5193 99.3204 20.4112 99.6727 20.3129V9.5226L97.7351 9.28675V8.13696C98.0483 7.99938 98.4299 7.87162 98.8801 7.7537C99.3498 7.63577 99.8293 7.5375 100.319 7.45888C100.808 7.36061 101.278 7.28199 101.728 7.22303C102.197 7.16406 102.589 7.11493 102.902 7.07562H103.9V10.4071H103.93C104.243 9.48329 104.791 8.69711 105.574 8.04851C106.376 7.39992 107.335 7.07562 108.451 7.07562C108.92 7.07562 109.38 7.12475 109.83 7.22303C110.28 7.3213 110.691 7.50802 111.063 7.78318C111.455 8.03869 111.787 8.4023 112.061 8.874C112.335 9.34571 112.531 9.955 112.649 10.7019C113.001 9.62087 113.588 8.74625 114.41 8.078C115.232 7.40974 116.23 7.07562 117.404 7.07562C118.129 7.07562 118.765 7.17389 119.313 7.37043C119.88 7.54732 120.35 7.87162 120.722 8.34333C121.113 8.81504 121.407 9.45381 121.603 10.2596C121.798 11.0655 121.896 12.0875 121.896 13.3257V20.3129C122.562 20.4308 123.207 20.6667 123.834 21.0205V22.1703H116.201V21.0205C116.651 20.7257 117.14 20.4898 117.669 20.3129V13.9154C117.669 12.3823 117.522 11.2522 117.228 10.525C116.954 9.79776 116.348 9.43416 115.408 9.43416C114.704 9.43416 114.146 9.69949 113.735 10.2302C113.343 10.7608 113.05 11.4684 112.854 12.3528V20.3129C113.187 20.4112 113.48 20.5193 113.735 20.6372C114.009 20.7551 114.263 20.8829 114.498 21.0205V22.1703Z" fill="white"/>
<path d="M138.449 19.6938C138.292 20.0279 138.038 20.3719 137.685 20.7257C137.353 21.0598 136.932 21.3644 136.423 21.6396C135.934 21.8951 135.356 22.1015 134.691 22.2587C134.045 22.4356 133.34 22.524 132.577 22.524C131.364 22.524 130.287 22.3472 129.348 21.9934C128.408 21.6199 127.626 21.0991 126.999 20.4308C126.373 19.7429 125.893 18.9273 125.561 17.9839C125.248 17.0404 125.091 15.9791 125.091 14.7998C125.091 12.2841 125.747 10.3677 127.058 9.05089C128.369 7.73404 130.189 7.07562 132.518 7.07562C133.517 7.07562 134.446 7.2132 135.307 7.48836C136.188 7.76352 136.912 8.21558 137.48 8.84452C138.067 9.47346 138.468 10.299 138.683 11.321C138.918 12.343 138.908 13.5911 138.654 15.0652H129.641C129.661 16.6179 130.052 17.8561 130.816 18.7799C131.599 19.7036 132.743 20.1655 134.25 20.1655C134.896 20.1655 135.562 20.0672 136.247 19.8707C136.951 19.6741 137.499 19.4186 137.891 19.1042L138.449 19.6938ZM132.401 8.75608C132.01 8.75608 131.657 8.82487 131.344 8.96245C131.051 9.10003 130.786 9.35554 130.551 9.72897C130.336 10.0828 130.16 10.5741 130.023 11.2031C129.886 11.8124 129.788 12.5887 129.729 13.5321H134.456C134.593 11.9991 134.505 10.8198 134.192 9.99431C133.879 9.16882 133.282 8.75608 132.401 8.75608Z" fill="white"/>
<path d="M148.962 22.1703H140.859V21.0205C141.153 20.8632 141.456 20.7355 141.769 20.6372C142.082 20.5193 142.425 20.4112 142.797 20.3129V9.5226L140.859 9.28675V8.13696C141.153 8.01903 141.515 7.90111 141.945 7.78318C142.395 7.66525 142.865 7.56698 143.354 7.48836C143.844 7.39009 144.323 7.31147 144.793 7.25251C145.263 7.17389 145.674 7.11493 146.026 7.07562H147.024V20.3129C147.415 20.4112 147.768 20.5193 148.081 20.6372C148.394 20.7355 148.688 20.8632 148.962 21.0205V22.1703ZM142.298 2.59439C142.298 1.90649 142.532 1.36599 143.002 0.972897C143.472 0.579808 144.079 0.383263 144.822 0.383263C145.566 0.383263 146.173 0.579808 146.642 0.972897C147.112 1.36599 147.347 1.90649 147.347 2.59439C147.347 3.26265 147.112 3.79332 146.642 4.18641C146.173 4.5795 145.566 4.77604 144.822 4.77604C144.079 4.77604 143.472 4.5795 143.002 4.18641C142.532 3.79332 142.298 3.26265 142.298 2.59439Z" fill="white"/>
<path d="M163.964 19.6938C163.807 20.0279 163.553 20.3719 163.201 20.7257C162.868 21.0598 162.447 21.3644 161.938 21.6396C161.449 21.8951 160.872 22.1015 160.206 22.2587C159.56 22.4356 158.856 22.524 158.093 22.524C156.879 22.524 155.803 22.3472 154.863 21.9934C153.924 21.6199 153.141 21.0991 152.515 20.4308C151.888 19.7429 151.409 18.9273 151.076 17.9839C150.763 17.0404 150.607 15.9791 150.607 14.7998C150.607 12.2841 151.262 10.3677 152.573 9.05089C153.885 7.73404 155.705 7.07562 158.034 7.07562C159.032 7.07562 159.962 7.2132 160.823 7.48836C161.704 7.76352 162.428 8.21558 162.995 8.84452C163.582 9.47346 163.984 10.299 164.199 11.321C164.434 12.343 164.424 13.5911 164.17 15.0652H155.157C155.176 16.6179 155.568 17.8561 156.331 18.7799C157.114 19.7036 158.259 20.1655 159.766 20.1655C160.412 20.1655 161.077 20.0672 161.762 19.8707C162.467 19.6741 163.015 19.4186 163.406 19.1042L163.964 19.6938ZM157.916 8.75608C157.525 8.75608 157.173 8.82487 156.86 8.96245C156.566 9.10003 156.302 9.35554 156.067 9.72897C155.852 10.0828 155.676 10.5741 155.539 11.2031C155.402 11.8124 155.304 12.5887 155.245 13.5321H159.971C160.108 11.9991 160.02 10.8198 159.707 9.99431C159.394 9.16882 158.797 8.75608 157.916 8.75608Z" fill="white"/>
<path d="M173.978 10.8198C173.743 10.9377 173.469 11.1343 173.156 11.4094C172.843 11.6846 172.559 12.1366 172.305 12.7656V20.3129C172.696 20.3522 173.088 20.4308 173.479 20.5488C173.87 20.647 174.262 20.8043 174.653 21.0205V22.1703H166.14V21.0205C166.492 20.8239 166.825 20.6765 167.138 20.5783C167.451 20.48 167.764 20.3915 168.077 20.3129V9.5226L166.14 9.28675V8.13696C166.453 7.99938 166.834 7.87162 167.285 7.7537C167.754 7.63577 168.234 7.5375 168.723 7.45888C169.212 7.36061 169.682 7.28199 170.132 7.22303C170.602 7.16406 170.993 7.11493 171.307 7.07562H172.305V10.9967H172.422C172.579 10.5643 172.804 10.1122 173.097 9.64053C173.41 9.16882 173.773 8.73642 174.184 8.34333C174.595 7.95024 175.045 7.63577 175.534 7.39992C176.023 7.16406 176.532 7.05596 177.061 7.07562C177.276 7.35078 177.462 7.74387 177.618 8.25489C177.775 8.74625 177.902 9.21796 178 9.67001V10.8198H173.978Z" fill="white"/>
<path d="M7.5144 50.7165C6.103 50.7165 4.87037 50.4708 3.81652 49.9795C2.78149 49.4692 1.97229 48.7605 1.38891 47.8534C0.805529 46.9463 0.513839 45.8879 0.513839 44.6784C0.513839 43.3555 0.880804 42.1744 1.61473 41.135C2.36748 40.0955 3.46838 39.264 4.91742 38.6404C4.31522 37.96 3.88239 37.3175 3.61893 36.7127C3.35546 36.108 3.22373 35.4465 3.22373 34.7284C3.22373 33.4244 3.6942 32.3471 4.63514 31.4967C5.57607 30.6274 6.88397 30.1927 8.55884 30.1927C9.65033 30.1927 10.5913 30.4006 11.3816 30.8164C12.172 31.2321 12.7742 31.7896 13.1882 32.4889C13.6023 33.1881 13.7999 33.9819 13.781 34.8701H10.8735C10.8924 34.1142 10.6571 33.5377 10.1678 33.1409C9.69737 32.744 9.15163 32.5456 8.53061 32.5456C7.79668 32.5456 7.2133 32.7535 6.78047 33.1692C6.34764 33.5661 6.13123 34.0764 6.13123 34.7C6.13123 35.2481 6.28178 35.7867 6.58287 36.3158C6.90279 36.845 7.38267 37.4403 8.02251 38.1017L13.8939 44.0264C14.3644 43.3083 14.8725 42.4579 15.4183 41.4751L16.1522 40.0861H19.2573L18.1282 42.1555C17.3566 43.6674 16.5944 44.9336 15.8417 45.9541L20.2453 50.3764H16.5756L14.1762 47.9668C13.1977 48.9306 12.172 49.6299 11.0994 50.0645C10.0267 50.4992 8.83171 50.7165 7.5144 50.7165ZM3.42133 44.5084C3.42133 45.5667 3.7977 46.4455 4.55045 47.1447C5.32202 47.8439 6.32882 48.1936 7.57086 48.1936C8.49297 48.1936 9.33041 48.0329 10.0832 47.7117C10.8359 47.3715 11.5698 46.8234 12.2849 46.0675L6.66756 40.4263C5.57607 40.8798 4.75746 41.4562 4.21172 42.1555C3.68479 42.8358 3.42133 43.6201 3.42133 44.5084Z" fill="white"/>
<path d="M26.2797 50.4047L20.9446 30.5329H24.1626L28.0863 46.9746L32.6028 30.5329H35.9054L40.2808 46.9746L44.2045 30.5329H47.4225L42.0027 50.3764H38.5024L34.1835 34.8134L29.7235 50.3764L26.2797 50.4047Z" fill="white"/>
<path d="M52.3132 33.6511C51.7487 33.6511 51.2782 33.481 50.9018 33.1409C50.5443 32.7818 50.3655 32.3377 50.3655 31.8085C50.3655 31.2794 50.5443 30.8447 50.9018 30.5045C51.2782 30.1455 51.7487 29.9659 52.3132 29.9659C52.8778 29.9659 53.3389 30.1455 53.6964 30.5045C54.0728 30.8447 54.261 31.2794 54.261 31.8085C54.261 32.3377 54.0728 32.7818 53.6964 33.1409C53.3389 33.481 52.8778 33.6511 52.3132 33.6511ZM50.8171 50.3764V36.3158H53.8093V50.3764H50.8171Z" fill="white"/>
<path d="M64.1953 50.3764C62.8215 50.3764 61.73 50.0456 60.9208 49.3842C60.1116 48.7038 59.707 47.5038 59.707 45.784V38.8388H57.3076V36.3158H59.707L60.074 32.744H62.6992V36.3158H66.6511V38.8388H62.6992V45.784C62.6992 46.5588 62.8591 47.0975 63.1791 47.3998C63.5178 47.6833 64.0918 47.825 64.901 47.825H66.51V50.3764H64.1953Z" fill="white"/>
<path d="M76.1723 50.3764C74.7986 50.3764 73.7071 50.0456 72.8979 49.3842C72.0887 48.7038 71.6841 47.5038 71.6841 45.784V38.8388H69.2847V36.3158H71.6841L72.051 32.744H74.6763V36.3158H78.6282V38.8388H74.6763V45.784C74.6763 46.5588 74.8362 47.0975 75.1561 47.3998C75.4949 47.6833 76.0688 47.825 76.8781 47.825H78.4871V50.3764H76.1723Z" fill="white"/>
<path d="M88.4685 50.7165C87.0948 50.7165 85.8716 50.4142 84.7989 49.8094C83.745 49.1857 82.917 48.3259 82.3148 47.2297C81.7126 46.1336 81.4115 44.858 81.4115 43.4028C81.4115 41.9287 81.7032 40.6341 82.2866 39.5191C82.8888 38.4041 83.7168 37.5348 84.7707 36.9111C85.8433 36.2875 87.0854 35.9757 88.4968 35.9757C89.8705 35.9757 91.0655 36.2875 92.0817 36.9111C93.0979 37.5159 93.8883 38.3285 94.4529 39.349C95.0174 40.3696 95.2997 41.494 95.2997 42.7224C95.2997 42.9114 95.2903 43.1193 95.2715 43.3461C95.2715 43.554 95.2621 43.7902 95.2433 44.0548H84.3472C84.4413 45.4155 84.8836 46.4549 85.674 47.173C86.4832 47.8723 87.4147 48.2219 88.4685 48.2219C89.3154 48.2219 90.0211 48.0329 90.5856 47.655C91.169 47.2581 91.6019 46.7289 91.8841 46.0675H94.8763C94.4999 47.3904 93.7472 48.4959 92.6181 49.3842C91.5078 50.2724 90.1246 50.7165 88.4685 50.7165ZM88.4685 38.4419C87.4711 38.4419 86.5867 38.7443 85.8151 39.349C85.0435 39.9349 84.5731 40.8231 84.4037 42.0137H92.3076C92.2511 40.9176 91.8653 40.0483 91.1502 39.4057C90.4351 38.7632 89.5412 38.4419 88.4685 38.4419Z" fill="white"/>
<path fill-rule="evenodd" clip-rule="evenodd" d="M3.69488 50.2353L3.69213 50.234C2.61457 49.7027 1.76496 48.9607 1.15178 48.0072C0.535474 47.0489 0.231558 45.9357 0.231558 44.6784C0.231558 43.2992 0.615348 42.0602 1.38447 40.971L1.38545 40.9696L1.38644 40.9682C2.11228 39.966 3.14037 39.1578 4.45672 38.5373C3.96771 37.9468 3.59999 37.3765 3.36031 36.8263C3.07991 36.1827 2.94145 35.4821 2.94145 34.7284C2.94145 33.3469 3.44379 32.1926 4.44519 31.287C5.45262 30.3569 6.83637 29.9092 8.55884 29.9092C9.68589 29.9092 10.6738 30.124 11.5126 30.5652C12.3445 31.0028 12.9875 31.5951 13.4309 32.344C13.8743 33.093 14.0831 33.9399 14.0632 34.8761L14.0574 35.1536H10.5841L10.5913 34.863C10.6085 34.1757 10.3977 33.6917 9.99047 33.3614L9.98836 33.3597L9.98628 33.3579C9.56726 33.0045 9.08599 32.829 8.53061 32.829C7.85208 32.829 7.34459 33.0196 6.97559 33.3741L6.97322 33.3764L6.97081 33.3786C6.60037 33.7182 6.41351 34.1507 6.41351 34.7C6.41351 35.1923 6.54785 35.6818 6.82612 36.1719C7.13092 36.6753 7.59424 37.252 8.22377 37.903L13.8474 43.5777C14.2593 42.9317 14.7003 42.1859 15.1703 41.3397L15.9824 39.8026H19.7338L18.3776 42.2882C17.6504 43.7128 16.9288 44.926 16.2122 45.9253L20.9267 50.6598H16.4587L14.1721 48.3636C13.232 49.2498 12.2432 49.9067 11.205 50.3274C10.0944 50.7774 8.86292 51 7.5144 51C6.07059 51 4.79586 50.7486 3.69765 50.2366L3.69488 50.2353ZM14.1762 47.9668L16.5756 50.3764H20.2453L15.8417 45.9541C16.5944 44.9336 17.3566 43.6674 18.1282 42.1555L19.2573 40.0861H16.1522L15.4183 41.4751C14.9328 42.3492 14.4772 43.1186 14.0514 43.7834C13.9984 43.866 13.946 43.9471 13.8939 44.0264L8.02251 38.1017C7.38267 37.4403 6.90279 36.845 6.58287 36.3158C6.28178 35.7867 6.13123 35.2481 6.13123 34.7C6.13123 34.0764 6.34764 33.5661 6.78047 33.1692C7.2133 32.7535 7.79668 32.5456 8.53061 32.5456C9.15163 32.5456 9.69737 32.744 10.1678 33.1409C10.6209 33.5083 10.8561 34.0297 10.8735 34.7051C10.8749 34.7591 10.8749 34.8141 10.8735 34.8701H13.781C13.7827 34.7929 13.7827 34.7163 13.781 34.6405C13.7806 34.6225 13.7802 34.6045 13.7796 34.5866C13.7548 33.8121 13.5577 33.1129 13.1882 32.4889C12.7742 31.7896 12.172 31.2321 11.3816 30.8164C10.5913 30.4006 9.65033 30.1927 8.55884 30.1927C6.88397 30.1927 5.57607 30.6274 4.63514 31.4967C3.6942 32.3471 3.22373 33.4244 3.22373 34.7284C3.22373 35.4465 3.35546 36.108 3.61893 36.7127C3.85322 37.2505 4.22144 37.8182 4.7236 38.4157C4.78613 38.4901 4.85074 38.565 4.91742 38.6404C4.82589 38.6797 4.73574 38.72 4.64699 38.761C3.33069 39.3699 2.31993 40.1612 1.61473 41.135C0.880804 42.1744 0.513839 43.3555 0.513839 44.6784C0.513839 45.8879 0.805529 46.9463 1.38891 47.8534C1.97229 48.7605 2.78149 49.4692 3.81652 49.9795C4.87037 50.4708 6.103 50.7165 7.5144 50.7165C8.83171 50.7165 10.0267 50.4992 11.0994 50.0645C12.172 49.6299 13.1977 48.9306 14.1762 47.9668ZM3.70361 44.5084C3.70361 45.4895 4.04851 46.2917 4.74086 46.9354C5.45063 47.578 6.38502 47.9101 7.57086 47.9101C8.45871 47.9101 9.25703 47.7558 9.96998 47.4519C10.6156 47.1597 11.2554 46.7018 11.8881 46.0698L6.60275 40.7621C5.63024 41.1901 4.91363 41.7159 4.43422 42.3299C3.94729 42.9588 3.70361 43.6813 3.70361 44.5084ZM4.21172 42.1555C4.75746 41.4562 5.57607 40.8798 6.66756 40.4263L12.2849 46.0675C11.5698 46.8234 10.8359 47.3715 10.0832 47.7117C9.33041 48.0329 8.49297 48.1936 7.57086 48.1936C6.32882 48.1936 5.32202 47.8439 4.55045 47.1447C3.7977 46.4455 3.42133 45.5667 3.42133 44.5084C3.42133 43.6201 3.68479 42.8358 4.21172 42.1555ZM26.0639 50.69L20.5761 30.2494H24.3852L28.1055 45.8387L32.3878 30.2494H36.1222L40.2659 45.8207L43.9819 30.2494H47.7926L42.218 50.6598H38.2881L34.1792 35.8536L29.9365 50.6581L26.0639 50.69ZM34.1835 34.8134L38.5024 50.3764H42.0027L47.4225 30.5329H44.2045L40.2808 46.9746L35.9054 30.5329H32.6028L28.0863 46.9746L24.1626 30.5329H20.9446L26.2797 50.4047L29.7235 50.3764L34.1835 34.8134ZM50.7075 33.3466L50.7022 33.3413C50.2893 32.9266 50.0832 32.4093 50.0832 31.8085C50.0832 31.2077 50.2895 30.6967 50.7074 30.299C51.1411 29.8853 51.6832 29.6824 52.3132 29.6824C52.9405 29.6824 53.4746 29.8837 53.8908 30.2988C54.3256 30.6945 54.5433 31.2053 54.5433 31.8085C54.5433 32.4141 54.3242 32.9329 53.8908 33.3464C53.4731 33.7438 52.9387 33.9346 52.3132 33.9346C51.6876 33.9346 51.1473 33.7441 50.713 33.3516L50.7075 33.3466ZM53.6964 30.5045C53.3389 30.1455 52.8778 29.9659 52.3132 29.9659C51.7487 29.9659 51.2782 30.1455 50.9018 30.5045C50.5443 30.8447 50.3655 31.2794 50.3655 31.8085C50.3655 32.3377 50.5443 32.7818 50.9018 33.1409C51.2782 33.481 51.7487 33.6511 52.3132 33.6511C52.8778 33.6511 53.3389 33.481 53.6964 33.1409C54.0728 32.7818 54.261 32.3377 54.261 31.8085C54.261 31.2794 54.0728 30.8447 53.6964 30.5045ZM50.5349 50.6598V36.0324H54.0916V50.6598H50.5349ZM60.7411 49.6028L60.7396 49.6015C59.8354 48.8413 59.4247 47.5363 59.4247 45.784V39.1223H57.0253V36.0324H59.4524L59.8193 32.4605H62.9815V36.0324H66.9334V39.1223H62.9815V45.784C62.9815 46.5292 63.1369 46.9656 63.3664 47.1876C63.6282 47.4022 64.1158 47.5416 64.901 47.5416H66.7922V50.6598H64.1953C62.7773 50.6598 61.6162 50.3181 60.7426 49.604L60.7411 49.6028ZM63.1791 47.3998C62.8591 47.0975 62.6992 46.5588 62.6992 45.784V38.8388H66.6511V36.3158H62.6992V32.744H60.074L59.707 36.3158H57.3076V38.8388H59.707V45.784C59.707 47.5038 60.1116 48.7038 60.9208 49.3842C61.73 50.0456 62.8215 50.3764 64.1953 50.3764H66.51V47.825H64.901C64.0918 47.825 63.5178 47.6833 63.1791 47.3998ZM72.7182 49.6028L72.7167 49.6015C71.8125 48.8413 71.4018 47.5363 71.4018 45.784V39.1223H69.0024V36.0324H71.4294L71.7964 32.4605H74.9585V36.0324H78.9105V39.1223H74.9585V45.784C74.9585 46.5292 75.1139 46.9655 75.3435 47.1875C75.6053 47.4022 76.0929 47.5416 76.8781 47.5416H78.7693V50.6598H76.1723C74.7544 50.6598 73.5933 50.3181 72.7197 49.604L72.7182 49.6028ZM75.1561 47.3998C74.8362 47.0975 74.6763 46.5588 74.6763 45.784V38.8388H78.6282V36.3158H74.6763V32.744H72.051L71.6841 36.3158H69.2847V38.8388H71.6841V45.784C71.6841 47.5038 72.0887 48.7038 72.8979 49.3842C73.7071 50.0456 74.7986 50.3764 76.1723 50.3764H78.4871V47.825H76.8781C76.0688 47.825 75.4949 47.6833 75.1561 47.3998ZM84.6581 50.0551L84.6556 50.0536C83.5573 49.4037 82.6938 48.5064 82.0677 47.3667C81.4389 46.2223 81.1292 44.898 81.1292 43.4028C81.1292 41.8906 81.4287 40.5494 82.0367 39.3873L82.0376 39.3856L82.0385 39.384C82.6643 38.2253 83.5279 37.3176 84.6273 36.6669L84.6283 36.6664L84.6292 36.6658C85.7506 36.0139 87.0427 35.6922 88.4968 35.6922C89.9137 35.6922 91.1607 36.0141 92.2274 36.6683C93.2851 37.2981 94.1107 38.1468 94.6996 39.2114C95.2887 40.2762 95.582 41.4485 95.582 42.7224C95.582 42.9174 95.5725 43.1293 95.5538 43.3579C95.5534 43.5711 95.5437 43.8103 95.5248 44.075L95.5061 44.3383H84.6564C84.7875 45.492 85.1966 46.3557 85.8606 46.9603C86.6187 47.6145 87.4843 47.9384 88.4685 47.9384C89.2729 47.9384 89.9203 47.7594 90.428 47.4198C90.9655 47.054 91.3634 46.568 91.6247 45.9558L91.698 45.784H95.2505L95.1477 46.1454C94.7543 47.5283 93.9661 48.6836 92.7928 49.6068C91.6247 50.5409 90.1768 51 88.4685 51C87.0521 51 85.7803 50.6878 84.6607 50.0566L84.6581 50.0551ZM92.6181 49.3842C93.6656 48.5602 94.3891 47.5491 94.7888 46.351C94.8199 46.2576 94.8491 46.1631 94.8763 46.0675H91.8841C91.6019 46.7289 91.169 47.2581 90.5856 47.655C90.0211 48.0329 89.3154 48.2219 88.4685 48.2219C87.4147 48.2219 86.4832 47.8723 85.674 47.173C84.9394 46.5056 84.5055 45.5607 84.3724 44.3383C84.3623 44.2454 84.3539 44.1509 84.3472 44.0548H95.2433C95.2621 43.7902 95.2715 43.554 95.2715 43.3461C95.2903 43.1193 95.2997 42.9114 95.2997 42.7224C95.2997 41.494 95.0174 40.3696 94.4529 39.349C93.8883 38.3285 93.0979 37.5159 92.0817 36.9111C91.0655 36.2875 89.8705 35.9757 88.4968 35.9757C87.0854 35.9757 85.8433 36.2875 84.7707 36.9111C83.7168 37.5348 82.8888 38.4041 82.2866 39.5191C81.7032 40.6341 81.4115 41.9287 81.4115 43.4028C81.4115 44.858 81.7126 46.1336 82.3148 47.2297C82.917 48.3259 83.745 49.1857 84.7989 49.8094C85.8716 50.4142 87.0948 50.7165 88.4685 50.7165C90.1246 50.7165 91.5078 50.2724 92.6181 49.3842ZM85.9871 39.5739L85.9854 39.5752C85.3549 40.0538 84.9335 40.7624 84.7385 41.7303H92.001C91.8988 40.8418 91.5489 40.1444 90.962 39.617C90.3048 39.0265 89.4806 38.7254 88.4685 38.7254C87.5328 38.7254 86.7097 39.0075 85.9888 39.5725L85.9871 39.5739ZM92.2851 41.7303C92.1808 40.7667 91.8025 39.9919 91.1502 39.4057C90.4351 38.7632 89.5412 38.4419 88.4685 38.4419C87.4711 38.4419 86.5867 38.7443 85.8151 39.349C85.1061 39.8874 84.6513 40.6812 84.4508 41.7303C84.4331 41.8228 84.4174 41.9173 84.4037 42.0137H92.3076C92.3026 41.9175 92.2951 41.823 92.2851 41.7303ZM50.8171 50.3764H53.8093V36.3158H50.8171V50.3764Z" fill="white"/>
</svg>
